<svg width="80" height="60" viewBox="70 20 60 250" fill="none" xmlns="http://www.w3.org/2000/svg">
<g clip-path="url(#clip0_518_1724)">
<path d="M159.466 86.7959C160.936 89.9483 158.836 91.8398 156.317 93.9414C153.797 96.043 150.227 97.0938 147.078 97.0938C143.718 97.304 140.359 97.304 136.999 97.5141C129.65 98.3548 122.931 102.138 117.262 106.761C121.041 93.7312 132.59 83.2232 145.818 80.4911C148.338 80.0708 150.857 79.6504 153.167 80.2809C155.897 81.1216 158.416 84.6943 159.466 86.7959Z" fill="#aaa6a0"/>
<path d="M143.928 110.124C146.447 108.022 144.558 104.239 143.718 103.399C142.878 102.558 141.408 101.927 139.938 101.507C135.529 100.456 131.119 101.297 127.34 104.029C128.18 103.188 132.589 105.92 133.429 106.761C134.899 107.812 139.518 113.696 143.928 110.124Z" fill="#aaa6a0"/>
<path d="M153.165 59.4749C160.724 65.9899 153.375 73.976 150.435 75.2369C145.396 77.3386 143.506 78.1792 138.467 80.2808C133.427 82.3824 125.448 86.1653 123.139 90.999C124.399 80.2808 129.018 69.9829 136.157 61.9968C138.257 59.4749 146.656 54.0107 153.165 59.4749Z" fill="#aaa6a0"/>
<path d="M136.367 40.5605C137.837 39.2995 139.517 38.0386 141.406 37.6182C143.296 37.1979 145.396 37.4081 146.866 38.669C148.965 40.3503 148.965 43.7129 147.706 46.0247C146.446 48.5466 144.556 50.2279 142.246 51.9092C140.567 53.3803 138.887 54.6413 137.207 56.1124C134.057 58.8445 130.488 61.7867 129.228 65.7798C126.708 56.953 129.648 46.8653 136.367 40.5605Z" fill="#aaa6a0"/>
<path d="M123.559 52.5397C121.249 47.4958 120.409 42.8722 120.199 37.4081C120.199 35.9369 123.139 24.1679 130.278 27.3203C136.577 30.0524 133.638 36.9877 132.168 39.5097C129.018 43.9231 127.128 46.445 125.869 55.9022C125.239 55.6921 123.979 53.1701 123.559 52.5397Z" fill="#aaa6a0"/>
<path d="M107.601 18.9139C115.58 19.5444 117.259 28.5813 117.259 32.7845C117.259 45.184 110.12 57.1632 106.341 59.0546C108.231 56.5327 106.971 51.0685 106.131 48.1263C105.291 45.3942 104.661 42.0316 102.981 39.5097C100.882 36.3573 98.3619 32.154 97.9419 28.5813C97.522 25.2187 98.5718 18.2834 107.601 18.9139Z" fill="#aaa6a0"/>
<path d="M121.877 54.4311C127.336 63.468 125.027 73.5557 123.767 77.3386C123.137 74.1862 123.137 69.3525 118.938 65.7798C116.628 63.6782 112.428 59.8953 112.428 56.7429C112.218 52.3295 119.357 50.438 121.877 54.4311Z" fill="#aaa6a0"/>
<path d="M114.321 69.1424C118.101 72.2948 121.04 78.5997 119.15 89.1077C118.311 93.5211 110.962 117.059 100.253 122.103C101.093 118.32 102.353 111.805 102.563 108.022C102.983 93.7312 96.0535 86.1654 96.4734 76.9184C96.4734 69.3526 104.242 60.5258 114.321 69.1424Z" fill="#aaa6a0"/>
<path d="M99.4144 43.0824C102.774 46.2348 103.614 52.1193 102.144 56.7428C100.464 62.4172 96.4748 65.7797 94.585 71.2439C92.4853 77.5488 93.7451 84.4841 95.6349 90.999C88.2858 85.1145 83.6665 79.8605 80.7269 70.8236C79.257 66.2001 77.3673 58.214 78.2072 53.3803C79.047 48.5466 80.9368 44.5535 85.1363 42.0316C89.5457 39.7198 96.0548 39.7198 99.4144 43.0824Z" fill="#aaa6a0"/>
<path d="M64.9766 28.161C61.1971 29.0017 59.0974 33.415 59.3073 37.1979C59.5173 40.9808 60.3572 44.1332 62.4569 47.4958C66.2364 53.5905 69.806 60.3156 75.4753 64.9392C74.0055 63.2579 76.3152 48.967 76.5251 43.9231C76.7351 38.8792 75.6852 33.6252 72.1157 30.4728C70.2259 28.5813 67.7063 27.5305 64.9766 28.161Z" fill="#aaa6a0"/>
<path d="M47.1289 48.3364C47.1289 49.8075 48.1787 51.0685 49.4386 51.9091C50.6984 52.7498 52.1682 52.96 53.638 53.3803C56.7876 54.2209 60.3571 54.8514 63.5067 55.4819C62.2469 51.9091 59.9372 48.7567 56.9976 46.445C55.3178 45.184 53.2181 44.1332 51.3284 44.3433C49.2286 44.5535 47.1289 46.2348 47.1289 48.3364Z" fill="#aaa6a0"/>
<path d="M68.3389 64.729C66.869 63.2578 48.1815 50.8583 44.192 62.4172C41.0424 71.4541 56.5804 73.976 68.3389 76.9183C75.058 78.3894 79.4674 81.1215 83.4569 82.8028C80.0973 77.9691 79.0475 76.7081 68.3389 64.729Z" fill="#aaa6a0"/>
<path d="M44.8178 87.8468C43.7679 91.4195 45.8676 103.819 60.5657 101.928C64.3452 101.507 80.3031 98.1446 85.3425 99.1954C90.3818 100.036 94.3713 100.667 97.5209 104.449C96.681 97.7243 80.7231 84.6943 74.0039 82.8029C53.2167 76.7082 45.6576 85.3248 44.8178 87.8468Z" fill="#aaa6a0"/>
<path d="M98.7844 120.001C101.934 114.747 95.0049 96.6734 70.648 104.239C65.6087 105.71 62.6691 109.283 60.7793 110.754C65.8186 109.914 73.3777 108.442 80.7267 118.32C83.0364 121.472 93.535 128.408 98.7844 120.001Z" fill="#aaa6a0"/>
<path d="M51.5392 107.812C52.3791 113.907 56.1586 111.385 57.6285 110.124C59.7282 108.443 59.9381 106.971 62.6678 106.131C60.5681 105.29 50.9093 102.768 51.5392 107.812Z" fill="#aaa6a0"/>
<path d="M41.0402 75.4472C39.3604 76.7082 38.9405 80.4911 40.4103 81.9622C41.2502 82.8028 42.51 82.8028 43.7699 82.5927C44.8197 82.3825 45.8696 81.5419 46.9195 80.9114C49.0192 79.6504 51.1189 78.5996 53.4286 77.759C51.5389 76.9183 49.6491 76.0777 47.5494 75.6574C45.6596 75.237 42.72 74.1862 41.0402 75.4472Z" fill="#aaa6a0"/>
<path d="M82.4063 38.669C87.8656 39.0894 93.3249 36.5674 98.3642 38.4589C96.8944 35.3065 93.9548 32.5744 90.3853 31.5236C87.0257 30.4728 83.0362 31.3134 80.3066 33.8353C79.4667 34.676 78.8368 35.9369 79.2567 36.9877C79.6767 38.0386 81.1465 38.4589 82.4063 38.669Z" fill="#aaa6a0"/>
<path d="M87.4454 27.9509C83.6659 28.5814 80.0964 30.0525 76.9468 31.7338C76.7368 29.2119 77.3667 26.4798 79.2565 24.5883C81.1462 22.6969 83.6659 21.8562 86.1856 21.8562C87.4454 22.0664 88.9152 22.4867 89.5452 23.5375C90.385 24.5883 90.385 26.2696 89.3352 27.1103C88.7053 27.7407 88.0753 27.7407 87.4454 27.9509Z" fill="#aaa6a0"/>
<path d="M64.5586 117.69C64.5586 117.69 71.6977 129.669 81.7764 137.655C87.8656 142.489 93.3248 143.75 94.5847 147.953C96.2645 153.207 92.9049 157.2 90.1753 166.657C87.2357 176.955 84.506 189.144 86.8157 189.144H111.382C98.9941 174.433 107.393 150.475 111.173 142.699C114.322 136.394 113.902 134.713 119.781 125.886C125.661 117.059 129.86 111.175 129.86 111.175C129.86 111.175 126.291 112.646 116.212 121.893C107.183 130.299 104.033 132.611 96.2645 133.662C84.296 135.763 64.5586 117.69 64.5586 117.69Z" fill="#5c5c5c"/>
</g>
<defs>
<clipPath id="clip0_518_1724">
<rect width="119" height="179" fill="white" transform="translate(40.5996 10.5)"/>
</clipPath>
</defs>
</svg>
